<svg xmlns="http://www.w3.org/2000/svg" width="1200" height="630" viewBox="0 0 1200 630" role="img" aria-labelledby="title desc"><title id="title">MeetingMind application screenshot</title><desc id="desc">Illustrated screenshot of the MeetingMind web application with upload panel, template selector and meeting minutes preview.</desc><defs><linearGradient id="bg" x1="0" y1="0" x2="1" y2="1"><stop offset="0" stop-color="#050816"/><stop offset="0.55" stop-color="#0f172a"/><stop offset="1" stop-color="#111827"/></linearGradient><linearGradient id="accent" x1="0" y1="0" x2="1" y2="0"><stop offset="0" stop-color="#7c3aed"/><stop offset="1" stop-color="#06b6d4"/></linearGradient><filter id="shadow" x="-20%" y="-20%" width="140%" height="140%"><feDropShadow dx="0" dy="18" stdDeviation="18" flood-color="#000" flood-opacity="0.35"/></filter></defs><rect width="1200" height="630" rx="26" fill="url(#bg)"/><rect x="18" y="18" width="1164" height="54" rx="16" fill="#07111f" stroke="#7c3aed" stroke-opacity="0.65"/><text x="58" y="53" font-family="Inter,Arial,sans-serif" font-size="22" fill="#f8fafc" font-weight="800">MeetingMind</text><rect x="900" y="31" width="130" height="28" rx="14" fill="#121827" stroke="#7c3aed"/><text x="932" y="50" font-family="Inter,Arial" font-size="12" fill="#f8fafc">12 450 crédits</text><rect x="1038" y="28" width="126" height="34" rx="17" fill="#111827" stroke="#334155"/><circle cx="1060" cy="45" r="14" fill="#6d5dfc"/><text x="1052" y="50" font-family="Inter,Arial" font-size="11" fill="white" font-weight="700">MD</text><text x="1082" y="50" font-family="Inter,Arial" font-size="12" fill="#e2e8f0">Marie Dubois</text><rect x="28" y="88" width="246" height="514" rx="16" fill="#101827" stroke="#334155" filter="url(#shadow)"/><text x="48" y="128" font-family="Inter,Arial" font-size="18" fill="#f8fafc" font-weight="700">Nouvelle Réunion</text><rect x="48" y="154" width="206" height="34" rx="8" fill="#0b1220" stroke="#7c3aed"/><rect x="50" y="156" width="102" height="30" rx="7" fill="#24114f"/><text x="82" y="177" font-family="Inter,Arial" font-size="12" fill="#fff">Français</text><text x="186" y="177" font-family="Inter,Arial" font-size="12" fill="#cbd5e1">English</text><text x="48" y="230" font-family="Inter,Arial" font-size="12" fill="#e2e8f0" font-weight="700">Titre de la réunion</text><rect x="48" y="246" width="206" height="34" rx="8" fill="#0b1220" stroke="#334155"/><text x="60" y="268" font-family="Inter,Arial" font-size="11" fill="#cbd5e1">Planification du lancement – Projet Orion</text><text x="48" y="322" font-family="Inter,Arial" font-size="12" fill="#e2e8f0" font-weight="700">Chargez votre fichier</text><rect x="48" y="338" width="206" height="104" rx="9" fill="#0b1220" stroke="#475569" stroke-dasharray="4 3"/><text x="93" y="390" font-family="Inter,Arial" font-size="12" fill="#94a3b8">Glissez-déposez ici</text><rect x="48" y="462" width="206" height="42" rx="9" fill="url(#accent)"/><text x="83" y="488" font-family="Inter,Arial" font-size="13" fill="#fff" font-weight="700">Générer le compte rendu</text><rect x="288" y="88" width="884" height="514" rx="16" fill="#111827" stroke="#334155" filter="url(#shadow)"/><text x="318" y="128" font-family="Inter,Arial" font-size="12" fill="#cbd5e1" font-weight="700">Modèle de compte rendu</text><g font-family="Inter,Arial" font-size="12"><rect x="318" y="142" width="78" height="30" rx="8" fill="#1f2937"/><text x="335" y="162" fill="#cbd5e1">Classique</text><rect x="406" y="142" width="78" height="30" rx="8" fill="#1f2937"/><text x="424" y="162" fill="#cbd5e1">Structuré</text><rect x="494" y="142" width="78" height="30" rx="8" fill="#1f2937"/><text x="514" y="162" fill="#cbd5e1">Exécutif</text><rect x="582" y="142" width="96" height="30" rx="8" fill="#221a14" stroke="#d97706"/><text x="606" y="162" fill="#fff">Anthropic</text></g><rect x="319" y="188" width="823" height="370" rx="14" fill="#f3efe6" stroke="#d8c8b6"/><text x="368" y="250" font-family="Georgia,serif" font-size="38" fill="#1d1b16" font-weight="700">Planification du lancement –</text><text x="368" y="288" font-family="Georgia,serif" font-size="38" fill="#1d1b16" font-weight="700">Projet Orion</text><rect x="368" y="316" width="488" height="80" rx="8" fill="#fbf7ef" stroke="#decfbd"/><text x="390" y="350" font-family="Inter,Arial" font-size="12" fill="#b9402d" font-weight="700">Date et heure</text><text x="390" y="374" font-family="Inter,Arial" font-size="11" fill="#2b2923">22 mai 2024 · 10h00–11h30</text><text x="560" y="350" font-family="Inter,Arial" font-size="12" fill="#b9402d" font-weight="700">Participants</text><text x="560" y="374" font-family="Inter,Arial" font-size="11" fill="#2b2923">Marie, Lucas, Sophie...</text><text x="740" y="350" font-family="Inter,Arial" font-size="12" fill="#b9402d" font-weight="700">Objectif</text><text x="740" y="374" font-family="Inter,Arial" font-size="11" fill="#2b2923">Priorités du lancement</text><line x1="368" y1="414" x2="1096" y2="414" stroke="#cdbfaa"/><text x="368" y="444" font-family="Georgia,serif" font-size="20" fill="#1d1b16" font-weight="700">Résumé exécutif</text><text x="368" y="474" font-family="Inter,Arial" font-size="12" fill="#2b2923">• Plan de lancement approuvé avec quelques ajustements.</text><text x="368" y="496" font-family="Inter,Arial" font-size="12" fill="#2b2923">• Responsabilités clarifiées pour chaque équipe.</text><text x="368" y="518" font-family="Inter,Arial" font-size="12" fill="#2b2923">• Actions définies avec échéances précises.</text><rect x="780" y="430" width="286" height="82" rx="6" fill="#f8f1e8" stroke="#cdbfaa"/><text x="798" y="456" font-family="Georgia,serif" font-size="18" fill="#1d1b16" font-weight="700">Actions à mener</text><line x1="798" y1="470" x2="1048" y2="470" stroke="#cdbfaa"/><text x="798" y="492" font-family="Inter,Arial" font-size="11" fill="#2b2923">Finaliser · Marie Dubois · Haute · En cours</text></svg>