<svg xmlns="http://www.w3.org/2000/svg" width="1400" height="760" viewBox="0 0 1400 760" role="img" aria-labelledby="title desc"><title id="title">MeetingMind application architecture</title><desc id="desc">Workflow diagram from browser upload through transcription, MiniMax analysis, preview, DOCX export, token tracking, and Vercel deployment.</desc><defs><linearGradient id="brand" x1="0" y1="0" x2="1" y2="0"><stop offset="0" stop-color="#7c3aed"/><stop offset="1" stop-color="#06b6d4"/></linearGradient><marker id="arrow" markerWidth="10" markerHeight="10" refX="8" refY="3" orient="auto"><path d="M0,0 L0,6 L9,3 z" fill="#7c3aed"/></marker><marker id="arrow2" markerWidth="10" markerHeight="10" refX="8" refY="3" orient="auto"><path d="M0,0 L0,6 L9,3 z" fill="#06b6d4"/></marker><style>.box{fill:#fff;stroke:#7c3aed;stroke-width:2}.api{fill:#f0fdff;stroke:#06b6d4;stroke-width:2}.obs{fill:#fff1f2;stroke:#e11d48;stroke-width:2}.t{font-family:Inter,Arial,sans-serif;fill:#111827}.h{font-weight:800;font-size:17px}.p{font-size:13px;fill:#374151}.n{font-weight:800;font-size:22px;fill:white}.small{font-size:12px;fill:#4b5563}</style></defs><rect width="1400" height="760" fill="#ffffff"/><text x="78" y="72" font-family="Inter,Arial" font-size="46" fill="#2563eb" font-weight="900">MeetingMind</text><text x="82" y="106" font-family="Inter,Arial" font-size="20" fill="#374151">Video Meeting Minutes Manager</text><g transform="translate(34,150)"><rect class="box" x="0" y="0" width="170" height="150" rx="14"/><circle cx="28" cy="28" r="18" fill="#7c3aed"/><text class="n" x="22" y="36">1</text><text class="t h" x="62" y="34">User in</text><text class="t h" x="62" y="56">Browser</text><text class="p" x="34" y="122">Modern web access</text></g><g transform="translate(235,150)"><rect class="box" x="0" y="0" width="200" height="150" rx="14"/><circle cx="28" cy="28" r="18" fill="#7c3aed"/><text class="n" x="22" y="36">2</text><text class="t h" x="62" y="34">React/Vite</text><text class="t h" x="62" y="56">Frontend UI</text><text class="p" x="36" y="122">Responsive app shell</text></g><g transform="translate(470,150)"><rect class="box" x="0" y="0" width="210" height="150" rx="14"/><circle cx="28" cy="28" r="18" fill="#7c3aed"/><text class="n" x="22" y="36">3</text><text class="t h" x="62" y="34">Meeting details</text><text class="t h" x="62" y="56">+ FR/EN toggle</text><text class="p" x="36" y="122">Capture context</text></g><g transform="translate(718,150)"><rect class="box" x="0" y="0" width="210" height="150" rx="14"/><circle cx="28" cy="28" r="18" fill="#7c3aed"/><text class="n" x="22" y="36">4</text><text class="t h" x="62" y="34">Media upload</text><text class="t h" x="62" y="56">video/audio</text><text class="p" x="36" y="122">M4A, MP4, WAV...</text></g><g transform="translate(964,150)"><rect class="box" x="0" y="0" width="220" height="150" rx="14"/><circle cx="28" cy="28" r="18" fill="#7c3aed"/><text class="n" x="22" y="36">5</text><text class="t h" x="62" y="34">Client-side</text><text class="t h" x="62" y="56">audio chunking</text><text class="p" x="36" y="122">Extract and split audio</text></g><path d="M205 225 L235 225" stroke="#7c3aed" stroke-width="3" marker-end="url(#arrow)"/><path d="M436 225 L470 225" stroke="#7c3aed" stroke-width="3" marker-end="url(#arrow)"/><path d="M681 225 L718 225" stroke="#7c3aed" stroke-width="3" marker-end="url(#arrow)"/><path d="M929 225 L964 225" stroke="#7c3aed" stroke-width="3" marker-end="url(#arrow)"/><g transform="translate(34,380)"><rect class="api" x="0" y="0" width="210" height="150" rx="14"/><circle cx="28" cy="28" r="18" fill="#06b6d4"/><text class="n" x="22" y="36">6</text><text class="t h" x="62" y="34">/api/transcribe</text><text class="t h" x="62" y="56">Groq Whisper</text><text class="p" x="36" y="122">High-speed speech-to-text</text></g><g transform="translate(285,380)"><rect class="api" x="0" y="0" width="210" height="150" rx="14"/><circle cx="28" cy="28" r="18" fill="#06b6d4"/><text class="n" x="22" y="36">7</text><text class="t h" x="62" y="34">/api/analyze</text><text class="t h" x="62" y="56">MiniMax M3</text><text class="p" x="36" y="122">AI analysis and summary</text></g><g transform="translate(536,380)"><rect class="api" x="0" y="0" width="210" height="150" rx="14"/><circle cx="28" cy="28" r="18" fill="#06b6d4"/><text class="n" x="22" y="36">8</text><text class="t h" x="62" y="34">Structured</text><text class="t h" x="62" y="56">Markdown minutes</text><text class="p" x="36" y="122">Clear output schema</text></g><g transform="translate(787,380)"><rect class="api" x="0" y="0" width="210" height="150" rx="14"/><circle cx="28" cy="28" r="18" fill="#06b6d4"/><text class="n" x="22" y="36">9</text><text class="t h" x="62" y="34">Live preview</text><text class="t h" x="62" y="56">renderer</text><text class="p" x="36" y="122">Readable meeting minutes</text></g><g transform="translate(1038,380)"><rect class="api" x="0" y="0" width="220" height="150" rx="14"/><circle cx="28" cy="28" r="18" fill="#06b6d4"/><text class="n" x="22" y="36">10</text><text class="t h" x="70" y="34">DOCX export</text><text class="t h" x="70" y="56">engine</text><text class="p" x="36" y="122">Anthropic, Corporate...</text></g><path d="M1074 300 C1074 345 140 340 140 380" stroke="#7c3aed" stroke-width="3" fill="none" marker-end="url(#arrow)"/><path d="M245 455 L285 455" stroke="#06b6d4" stroke-width="3" marker-end="url(#arrow2)"/><path d="M496 455 L536 455" stroke="#06b6d4" stroke-width="3" marker-end="url(#arrow2)"/><path d="M747 455 L787 455" stroke="#06b6d4" stroke-width="3" marker-end="url(#arrow2)"/><path d="M998 455 L1038 455" stroke="#06b6d4" stroke-width="3" marker-end="url(#arrow2)"/><g transform="translate(1220,250)"><rect x="0" y="0" width="150" height="330" rx="18" fill="#faf5ff" stroke="#c4b5fd" stroke-width="2"/><text x="42" y="40" class="t h" fill="#7c3aed">Outputs</text><rect x="18" y="68" width="114" height="76" rx="10" fill="#fff" stroke="#c4b5fd"/><text x="38" y="100" class="t h" fill="#7c3aed">Preview</text><text x="30" y="124" class="small">Live minutes</text><rect x="18" y="166" width="114" height="76" rx="10" fill="#fff" stroke="#fda4af"/><text x="38" y="198" class="t h" fill="#e11d48">DOCX</text><text x="30" y="222" class="small">Download</text><rect x="18" y="264" width="114" height="46" rx="10" fill="#fff" stroke="#67e8f9"/><text x="34" y="294" class="t h" fill="#0891b2">Metrics</text></g><path d="M1258 455 L1220 455" stroke="#06b6d4" stroke-width="3" marker-end="url(#arrow2)"/><g transform="translate(330,610)"><rect class="obs" x="0" y="0" width="360" height="82" rx="14"/><circle cx="28" cy="28" r="18" fill="#e11d48"/><text class="n" x="17" y="36">11</text><text class="t h" x="70" y="34">Token &amp; Usage Tracker</text><text class="p" x="70" y="60">Monitor audio, chars, segments and tokens</text></g><g transform="translate(810,610)"><rect class="obs" x="0" y="0" width="260" height="82" rx="14"/><circle cx="28" cy="28" r="18" fill="#e11d48"/><text class="n" x="17" y="36">12</text><text class="t h" x="70" y="34">Vercel deployment</text><text class="p" x="70" y="60">HTTPS edge hosting</text></g><path d="M1018 530 C1018 585 520 585 520 610" stroke="#e11d48" stroke-width="2" stroke-dasharray="8 8" fill="none"/><path d="M690 651 L810 651" stroke="#e11d48" stroke-width="3" marker-end="url(#arrow)"/></svg>